<?xml version="1.0" encoding="UTF-8" standalone="no"?>
<svg xmlns:dc="http://purl.org/dc/elements/1.1/" xmlns:cc="http://creativecommons.org/ns#" xmlns:rdf="http://www.w3.org/1999/02/22-rdf-syntax-ns#" xmlns:svg="http://www.w3.org/2000/svg" xmlns="http://www.w3.org/2000/svg" xmlns:sodipodi="http://sodipodi.sourceforge.net/DTD/sodipodi-0.dtd" xmlns:inkscape="http://www.inkscape.org/namespaces/inkscape" width="450.15836" height="496.08798" viewBox="0 0 450.15836 496.08798" version="1.1" id="svg8580" sodipodi:docname="lock.svg" inkscape:version="0.92.4 (5da689c313, 2019-01-14)">
  <metadata id="metadata8586"></metadata>
  <defs id="defs8584"></defs>
  <g transform="matrix(3.7647143,0,0,3.7647143,25.23438,-242.72383)" id="layer1" inkscape:label="Ebene 1">
    <path inkscape:connector-curvature="0" id="rect4537" d="m 52.917188,73.363482 c -5.20627,0 -9.791682,1.15856 -13.457071,3.76152 -3.66538,2.60296 -6.19062,6.48528 -7.86721,11.14248 -3.35318,9.31439 -3.8747,22.097298 -3.8747,39.398618 h 8.0641 c 0,-17.09453 0.80089,-29.445968 3.40083,-36.668038 1.29997,-3.61104 2.90729,-5.84823 4.946989,-7.29671 2.039692,-1.44848 4.732931,-2.27377 8.787062,-2.27377 8.10828,0 11.361531,2.67318 13.85186,8.20725 2.490344,5.53406 3.280944,14.387308 3.280944,24.802618 h 8.06669 c 0,-10.75136 -0.53127,-20.417908 -3.99407,-28.113008 -3.46279,-7.6951 -10.792853,-12.96096 -21.205424,-12.96096 z M 15.874997,127.66662 v 58.20834 h 74.083345 v -58.20834 z m 37.041669,10.87376 a 10.583333,10.583333 0 0 1 10.583331,10.58334 10.583333,10.583333 0 0 1 -6.614581,9.80405 v 16.36386 h -7.9375 v -16.36437 a 10.583333,10.583333 0 0 1 -6.614578,-9.80354 10.583333,10.583333 0 0 1 10.583328,-10.58334 z" style="opacity:1;fill:#ffffff;fill-opacity:1;fill-rule:evenodd;stroke:none;stroke-width:5.9805088;stroke-linecap:round;stroke-linejoin:round;stroke-miterlimit:4;stroke-dasharray:none;stroke-dashoffset:0;stroke-opacity:1;paint-order:normal"></path>
  </g>
</svg>
