<?xml version="1.0" encoding="UTF-8" standalone="no"?>
<svg xmlns:dc="http://purl.org/dc/elements/1.1/" xmlns:cc="http://creativecommons.org/ns#" xmlns:rdf="http://www.w3.org/1999/02/22-rdf-syntax-ns#" xmlns:svg="http://www.w3.org/2000/svg" xmlns="http://www.w3.org/2000/svg" width="172.80693mm" height="116.95051mm" viewBox="0 0 172.80693 116.95051" version="1.1" id="svg8">
  <defs id="defs2"></defs>
  <metadata id="metadata5"></metadata>
  <g id="layer1" transform="translate(-11.870343,-91.343155)">
    <g id="g4584" transform="matrix(0.35874389,0,0,0.35874389,-56.793238,47.755772)">
      <g id="Ebene_1">
        <g id="g4532">
          <path id="path4520" d="m 193,295.2 c 0,-2.4 1.1,-4.5 3.3,-6.2 2.2,-1.7 4.9,-2.5 8.1,-2.5 2.2,0 4.1,0.4 5.9,1.2 1.7,0.8 3.1,1.9 4.1,3.3 l 28.4,35.8 28.7,-36.2 c 1,-1.2 2.3,-2.2 4.1,-3 1.7,-0.8 3.7,-1.2 5.8,-1.2 3.1,0 5.8,0.8 8,2.5 2.2,1.7 3.3,3.7 3.3,6.2 v 83.8 c 0,2.2 -0.9,4 -2.8,5.6 -1.9,1.6 -4,2.3 -6.5,2.3 -2.5,0 -4.7,-0.8 -6.5,-2.3 -1.8,-1.5 -2.8,-3.4 -2.8,-5.6 v -62.4 h -0.4 l -22.8,29.9 c -1,1.3 -2.3,2.3 -3.7,3 -1.4,0.7 -2.9,1 -4.4,1 -1.5,0 -3,-0.3 -4.4,-1 -1.4,-0.7 -2.6,-1.7 -3.7,-3 L 212,316.7 h -0.4 v 62.4 c 0,2.2 -0.9,4 -2.8,5.6 -1.9,1.6 -4,2.3 -6.5,2.3 -2.5,0 -4.7,-0.8 -6.5,-2.3 -1.8,-1.5 -2.8,-3.4 -2.8,-5.6 z" class="st0" style="stroke:#000000;stroke-width:3;stroke-miterlimit:10"></path>
          <path id="path4522" d="m 308.3,294.4 c 0,-2.2 0.9,-4 2.8,-5.6 1.8,-1.5 4,-2.3 6.5,-2.3 2.5,0 4.7,0.8 6.5,2.3 1.8,1.5 2.8,3.4 2.8,5.6 V 379 c 0,2.3 -0.9,4.1 -2.8,5.6 -1.8,1.5 -4,2.2 -6.5,2.2 -2.5,0 -4.7,-0.7 -6.5,-2.2 -1.8,-1.5 -2.8,-3.4 -2.8,-5.6 z" class="st0" style="stroke:#000000;stroke-width:3;stroke-miterlimit:10"></path>
          <path id="path4524" d="m 342.6,295.5 c 0,-2.2 0.9,-4 2.8,-5.6 1.8,-1.5 4,-2.3 6.5,-2.3 H 408 c 2.2,0 4,0.9 5.6,2.6 1.5,1.7 2.3,3.8 2.3,6.4 0,2.5 -0.8,4.7 -2.3,6.4 -1.5,1.7 -3.4,2.6 -5.6,2.6 h -46.8 v 22.3 h 37.7 c 2.2,0 4,0.9 5.6,2.6 1.5,1.7 2.3,3.8 2.3,6.4 0,2.5 -0.8,4.7 -2.3,6.4 -1.5,1.7 -3.4,2.6 -5.6,2.6 h -37.7 v 22.5 H 408 c 2.2,0 4,0.9 5.6,2.6 1.5,1.7 2.3,3.8 2.3,6.4 0,2.5 -0.8,4.7 -2.3,6.4 -1.5,1.7 -3.4,2.6 -5.6,2.6 h -56.1 c -2.5,0 -4.7,-0.8 -6.5,-2.3 -1.8,-1.5 -2.8,-3.4 -2.8,-5.6 z" class="st0" style="stroke:#000000;stroke-width:3;stroke-miterlimit:10"></path>
          <path id="path4526" d="m 423.6,302.9 c -1.5,-1.7 -2.2,-3.8 -2.2,-6.4 0,-2.5 0.7,-4.7 2.2,-6.4 1.5,-1.7 3.3,-2.6 5.4,-2.6 h 63.4 c 2.1,0 3.9,0.9 5.4,2.6 1.5,1.7 2.2,3.8 2.2,6.4 0,2.5 -0.7,4.7 -2.2,6.4 -1.5,1.7 -3.3,2.6 -5.4,2.6 H 470 v 73.6 c 0,2.2 -0.9,4 -2.8,5.6 -1.9,1.6 -4,2.3 -6.5,2.3 -2.5,0 -4.7,-0.8 -6.6,-2.3 -1.9,-1.5 -2.8,-3.4 -2.8,-5.6 v -73.6 h -22.4 c -2.1,-0.1 -3.9,-0.9 -5.3,-2.6 z" class="st0" style="stroke:#000000;stroke-width:3;stroke-miterlimit:10"></path>
          <path id="path4528" d="m 509.1,295.5 c 0,-2.2 0.9,-4 2.8,-5.6 1.8,-1.5 4,-2.3 6.5,-2.3 h 56.1 c 2.2,0 4,0.9 5.6,2.6 1.5,1.7 2.3,3.8 2.3,6.4 0,2.5 -0.8,4.7 -2.3,6.4 -1.5,1.7 -3.4,2.6 -5.6,2.6 h -46.8 v 22.3 h 37.7 c 2.2,0 4,0.9 5.6,2.6 1.5,1.7 2.3,3.8 2.3,6.4 0,2.5 -0.8,4.7 -2.3,6.4 -1.5,1.7 -3.4,2.6 -5.6,2.6 h -37.7 v 22.5 h 46.8 c 2.2,0 4,0.9 5.6,2.6 1.5,1.7 2.3,3.8 2.3,6.4 0,2.5 -0.8,4.7 -2.3,6.4 -1.5,1.7 -3.4,2.6 -5.6,2.6 h -56.1 c -2.5,0 -4.7,-0.8 -6.5,-2.3 -1.8,-1.5 -2.8,-3.4 -2.8,-5.6 z" class="st0" style="stroke:#000000;stroke-width:3;stroke-miterlimit:10"></path>
          <path id="path4530" d="m 594.4,295.1 c 0,-2.4 1.1,-4.4 3.2,-6 2.1,-1.7 4.7,-2.5 7.8,-2.5 2.4,0 4.5,0.5 6.3,1.6 1.8,1.1 3.1,2.4 3.9,4.1 l 37.1,61 h 0.4 L 653,294.5 c 0,-2.2 0.9,-4 2.8,-5.6 1.8,-1.5 4,-2.3 6.5,-2.3 2.5,0 4.7,0.8 6.5,2.3 1.8,1.5 2.8,3.4 2.8,5.6 v 84 c 0,2.4 -1.1,4.4 -3.2,6 -2.1,1.7 -4.7,2.5 -7.8,2.5 -2.3,0 -4.3,-0.5 -6.2,-1.4 -1.9,-1 -3.2,-2.2 -4,-3.8 l -37.1,-61.3 h -0.4 l 0.1,58.7 c 0,2.2 -0.9,4 -2.8,5.6 -1.9,1.6 -4,2.3 -6.5,2.3 -2.5,0 -4.7,-0.8 -6.5,-2.3 -1.8,-1.5 -2.8,-3.4 -2.8,-5.6 z" class="st0" style="stroke:#000000;stroke-width:3;stroke-miterlimit:10"></path>
        </g>
        <g id="g4544">
          <path id="path4534" d="m 193.4,194.1 c 0,-1.8 0.8,-3.4 2.3,-4.6 1.5,-1.3 3.3,-1.9 5.5,-1.9 2.1,0 3.9,0.6 5.4,1.9 1.5,1.3 2.3,2.8 2.3,4.6 v 70.4 c 0,1.8 -0.8,3.4 -2.3,4.6 -1.5,1.3 -3.3,1.9 -5.4,1.9 -2.1,0 -3.9,-0.6 -5.5,-1.9 -1.6,-1.3 -2.3,-2.8 -2.3,-4.6 z m 63.2,65 c 1.2,1.3 1.6,2.9 1.4,4.8 -0.3,1.9 -1.2,3.6 -2.9,5.1 -1.6,1.3 -3.3,2 -5.2,2.1 -1.9,0.1 -3.4,-0.6 -4.6,-2.1 l -29.5,-33.9 c -1.5,-1.6 -2.2,-3.5 -2.2,-5.8 0,-2.3 0.7,-4.2 2.2,-5.8 l 29.5,-33.9 c 1.2,-1.5 2.7,-2.1 4.6,-2.1 1.9,0.1 3.6,0.8 5.2,2.1 1.7,1.5 2.6,3.1 2.9,5.1 0.3,1.9 -0.2,3.5 -1.4,4.9 l -25.4,29.8 z" class="st1" style="fill:#a67c52;stroke:#a67c52;stroke-opacity:1;stroke-width:4.0000682;stroke-miterlimit:4;stroke-dasharray:none"></path>
          <path id="path4536" d="m 336.3,261.6 c 0.6,1.7 0.4,3.4 -0.5,5.1 -0.9,1.7 -2.3,3 -4.3,3.8 -2.1,0.7 -4.1,0.7 -5.9,0.1 -1.8,-0.6 -3.1,-1.7 -3.9,-3.4 l -5.2,-11.9 h -32.7 l -5.2,11.9 c -0.8,1.7 -2.1,2.8 -3.9,3.4 -1.8,0.6 -3.8,0.5 -5.9,-0.1 -2,-0.8 -3.4,-2.1 -4.3,-3.8 -0.9,-1.7 -1.1,-3.5 -0.5,-5.1 l 26.8,-68.8 c 0.8,-1.7 2.1,-3.1 3.8,-3.9 1.7,-0.8 3.6,-1.3 5.6,-1.3 2,0 3.8,0.4 5.6,1.3 1.8,0.9 3,2.2 3.8,3.9 z m -35.8,-51.1 h -0.9 l -10.6,30 h 22.2 z" class="st2" style="fill:#a67c52;stroke:#a67c52;stroke-width:4.0000682;stroke-miterlimit:10;stroke-dasharray:none"></path>
          <path id="path4538" d="m 345.4,194.8 c 0,-2 0.9,-3.7 2.8,-5.1 1.9,-1.4 4.1,-2.1 6.7,-2.1 1.8,0 3.5,0.3 4.9,1 1.5,0.7 2.6,1.6 3.4,2.8 l 23.7,29.8 23.9,-30.1 c 0.8,-1 1.9,-1.9 3.4,-2.5 1.5,-0.7 3.1,-1 4.8,-1 2.6,0 4.8,0.7 6.6,2.1 1.8,1.4 2.7,3.1 2.7,5.1 v 69.8 c 0,1.8 -0.8,3.4 -2.3,4.6 -1.5,1.3 -3.3,1.9 -5.5,1.9 -2.1,0 -3.9,-0.6 -5.4,-1.9 -1.5,-1.3 -2.3,-2.8 -2.3,-4.6 v -51.9 h -0.3 l -19,24.9 c -0.9,1.1 -1.9,1.9 -3.1,2.5 -1.2,0.6 -2.4,0.9 -3.7,0.9 -1.3,0 -2.5,-0.3 -3.7,-0.9 -1.2,-0.6 -2.2,-1.4 -3.1,-2.5 L 361,212.7 h -0.3 v 51.9 c 0,1.8 -0.8,3.4 -2.3,4.6 -1.5,1.3 -3.3,1.9 -5.4,1.9 -2.1,0 -3.9,-0.6 -5.5,-1.9 -1.6,-1.3 -2.3,-2.8 -2.3,-4.6 v -69.8 z" class="st2" style="fill:#a67c52;stroke:#a67c52;stroke-width:4;stroke-miterlimit:10"></path>
          <path id="path4540" d="m 441.4,194.8 c 0,-2 0.9,-3.7 2.8,-5.1 1.9,-1.4 4.1,-2.1 6.7,-2.1 1.8,0 3.5,0.3 4.9,1 1.5,0.7 2.6,1.6 3.4,2.8 l 23.7,29.8 23.9,-30.1 c 0.8,-1 1.9,-1.9 3.4,-2.5 1.5,-0.7 3.1,-1 4.8,-1 2.6,0 4.8,0.7 6.6,2.1 1.8,1.4 2.7,3.1 2.7,5.1 v 69.8 c 0,1.8 -0.8,3.4 -2.3,4.6 -1.5,1.3 -3.3,1.9 -5.5,1.9 -2.1,0 -3.9,-0.6 -5.4,-1.9 -1.5,-1.3 -2.3,-2.8 -2.3,-4.6 v -51.9 h -0.3 l -19,24.9 c -0.9,1.1 -1.9,1.9 -3.1,2.5 -1.2,0.6 -2.4,0.9 -3.7,0.9 -1.3,0 -2.5,-0.3 -3.7,-0.9 -1.2,-0.6 -2.2,-1.4 -3.1,-2.5 L 457,212.7 h -0.3 v 51.9 c 0,1.8 -0.8,3.4 -2.3,4.6 -1.5,1.3 -3.3,1.9 -5.4,1.9 -2.1,0 -3.9,-0.6 -5.5,-1.9 -1.6,-1.3 -2.3,-2.8 -2.3,-4.6 v -69.8 z" class="st2" style="fill:#a67c52;stroke:#a67c52;stroke-width:4;stroke-miterlimit:10"></path>
          <path id="path4542" d="m 537.3,195 c 0,-1.8 0.8,-3.4 2.3,-4.6 1.5,-1.3 3.3,-1.9 5.5,-1.9 h 46.7 c 1.8,0 3.4,0.7 4.6,2.1 1.3,1.4 1.9,3.2 1.9,5.3 0,2.1 -0.6,3.9 -1.9,5.3 -1.3,1.4 -2.8,2.1 -4.6,2.1 h -38.9 v 18.5 h 31.4 c 1.8,0 3.4,0.7 4.6,2.1 1.3,1.4 1.9,3.2 1.9,5.3 0,2.1 -0.6,3.9 -1.9,5.3 -1.3,1.4 -2.8,2.1 -4.6,2.1 h -31.4 v 18.7 h 38.9 c 1.8,0 3.4,0.7 4.6,2.1 1.3,1.4 1.9,3.2 1.9,5.3 0,2.1 -0.6,3.9 -1.9,5.3 -1.3,1.4 -2.8,2.1 -4.6,2.1 H 545 c -2.1,0 -3.9,-0.6 -5.5,-1.9 -1.5,-1.3 -2.3,-2.8 -2.3,-4.6 V 195 Z" class="st2" style="fill:#a67c52;stroke:#a67c52;stroke-width:4;stroke-miterlimit:10"></path>
        </g>
        <g id="g4548">
          <path id="path4546" d="m 669.5,263.2 c 0,1.8 -0.8,3.4 -2.3,4.6 -1.5,1.2 -3.3,1.9 -5.5,1.9 -2.1,0 -3.9,-0.6 -5.4,-1.9 -1.5,-1.3 -2.3,-2.8 -2.3,-4.6 v -20.3 h -16.8 l -11.8,23.4 c -0.4,0.8 -0.9,1.5 -1.6,2 -0.7,0.5 -1.5,0.9 -2.4,1.1 -0.9,0.2 -1.9,0.3 -2.9,0.2 -1,-0.1 -2,-0.3 -2.9,-0.8 -2,-1 -3.4,-2.4 -4.2,-4.3 -0.8,-1.8 -0.7,-3.6 0.3,-5.3 l 9.6,-19.1 c -4.9,-2.1 -8.8,-5.4 -11.9,-9.8 -3.1,-4.4 -4.6,-9.6 -4.6,-15.5 0,-4 0.7,-7.7 2.2,-11.1 1.5,-3.4 3.5,-6.4 6.2,-8.8 2.6,-2.5 5.7,-4.4 9.2,-5.8 3.5,-1.4 7.2,-2.1 11.2,-2.1 h 28.2 c 2.1,0 3.9,0.6 5.5,1.9 1.5,1.3 2.3,2.8 2.3,4.6 v 69.7 z M 622,220 c 0.7,1.6 1.6,2.9 2.8,4.1 1.2,1.2 2.5,2.1 4.1,2.8 1.6,0.7 3.3,1 5,1 h 20.2 v -26.2 h -20.2 c -1.7,0 -3.4,0.3 -5,1 -1.6,0.7 -3,1.6 -4.1,2.8 -1.2,1.2 -2.1,2.6 -2.8,4.1 -0.7,1.6 -1,3.3 -1,5.1 -0.1,2.1 0.3,3.8 1,5.3 z" class="st2" style="fill:#a67c52;stroke:#a67c52;stroke-width:4;stroke-miterlimit:10"></path>
        </g>
      </g>
      <g id="Ebene_2">
        <path id="path4551" d="m 209.3,121.6 h -16 v 17 43 c 0.1,-1.1 1,-2 2.4,-2.8 1.5,-0.9 3.3,-1.3 5.5,-1.3 2.1,0 3.9,0.4 5.4,1.3 1.4,0.8 2.6,1.7 2.7,2.8 v -43 h 441 v 36.5 h 13.5 c 2.1,0 3.9,0.6 5.5,1.9 1,0.8 1.7,1.8 2,2.8 v -41.3 -3 -14 h -462 z" class="st1" style="fill:#a67c52"></path>
        <path id="path4553" d="m 669.5,399.6 c -2.2,1.3 -4.8,1.9 -7.9,1.9 -2.3,0 -4.4,-0.4 -6.3,-1.1 -1.9,-0.7 -3.3,-1.7 -4.1,-2.9 l -0.5,-0.6 v 31.6 H 213.3 v -32.2 c -0.6,1.1 -1.4,2.1 -2.6,3 -2.2,1.6 -4.9,2.5 -7.9,2.5 -2.4,0 -3.4,0 -6.9,-1.6 -0.5,-0.2 -4.5,-2.8 -4.5,-3.7 v 32 14 5 h 459.5 19.5 2.5 v -52 c -0.3,1.6 -1.4,3 -3.4,4.1 z"></path>
      </g>
    </g>
  </g>
  <style id="style4518" type="text/css">
.st0{stroke:#000000;stroke-width:3;stroke-miterlimit:10;}
.st1{fill:#A67C52;}
.st2{fill:#A67C52;stroke:#A67C52;stroke-width:4;stroke-miterlimit:10;}
</style>
</svg>
